<svg width="280" height="80" viewBox="0 0 280 80" fill="none" xmlns="http://www.w3.org/2000/svg">
<g clip-path="url(#clip0_2965_107482)">
<rect width="280" height="80" fill="white"/>
<g filter="url(#filter0_f_2965_107482)">
<ellipse cx="67.7182" cy="54.9519" rx="67.7182" ry="54.9519" transform="matrix(0.995719 -0.0924312 0.180241 0.983622 -3 20.1416)" fill="#2E43FF"/>
</g>
<g filter="url(#filter1_f_2965_107482)">
<ellipse cx="75.5178" cy="70.4228" rx="75.5178" ry="70.4228" transform="matrix(0.995719 -0.0924312 0.180241 0.983622 108.225 -33.5112)" fill="#4094FF"/>
</g>
<path d="M-65 9.05469C-42.0019 -3.44989 -34.8035 9.78924 -11.8055 -2.71534C11.1926 -15.2199 3.99419 -28.459 26.9856 -40.96C49.9771 -53.461 57.1821 -40.2255 80.1802 -52.7301C103.178 -65.2346 95.9798 -78.4738 118.978 -90.9783C141.976 -103.483 149.174 -90.2438 172.179 -102.752C195.184 -115.26 187.979 -128.496 210.977 -141" stroke="white" stroke-opacity="0.64" stroke-width="0.15" stroke-miterlimit="10"/>
<path d="M-7.3833 115.021C15.6148 102.517 22.8132 115.756 45.8112 103.251C68.8093 90.7469 61.6109 77.5077 84.6023 65.0068C107.594 52.5058 114.799 65.7413 137.797 53.2367C160.795 40.7322 153.597 27.493 176.595 14.9885C199.593 2.48389 206.791 15.723 229.796 3.21484C252.8 -9.29334 245.595 -22.5289 268.593 -35.0335" stroke="white" stroke-opacity="0.64" stroke-width="0.15" stroke-miterlimit="10"/>
<path d="M-36.1914 62.0381C-13.1933 49.5335 -5.99492 62.7726 17.0031 50.2681C40.0012 37.7635 32.8028 24.5244 55.7942 12.0234C78.7857 -0.477609 85.9907 12.7579 108.989 0.253348C131.987 -12.2512 124.788 -25.4904 147.786 -37.9949C170.785 -50.4995 177.983 -37.2604 200.988 -49.7686C223.992 -62.2767 216.787 -75.5123 239.785 -88.0168" stroke="white" stroke-opacity="0.64" stroke-width="0.15" stroke-miterlimit="10"/>
<path d="M21.4248 168.005C44.4229 155.501 51.6359 168.767 74.634 156.262C97.6321 143.758 90.419 130.492 113.41 117.991C136.402 105.49 143.622 118.752 166.62 106.248C189.618 93.743 182.405 80.4769 205.403 67.9723C228.401 55.4678 235.614 68.7338 258.618 56.2256C281.623 43.7175 274.404 30.455 297.402 17.9504" stroke="white" stroke-opacity="0.64" stroke-width="0.15" stroke-miterlimit="10"/>
<path d="M-50.603 35.5332C-27.605 23.0286 -20.3919 36.2947 2.60615 23.7901C25.6042 11.2855 18.3912 -1.98053 41.3826 -14.4815C64.3741 -26.9825 71.5937 -13.72 94.5918 -26.2246C117.59 -38.7292 110.377 -51.9952 133.375 -64.4998C156.373 -77.0044 163.586 -63.7384 186.591 -76.2465C209.595 -88.7547 202.376 -102.017 225.374 -114.522" stroke="white" stroke-opacity="0.64" stroke-width="0.15" stroke-miterlimit="10"/>
<path d="M7.02832 141.527C30.0264 129.022 37.2248 142.261 60.2229 129.757C83.2209 117.252 76.0225 104.013 99.014 91.5121C122.005 79.0112 129.21 92.2467 152.209 79.7421C175.207 67.2375 168.008 53.9984 191.006 41.4938C214.004 28.9893 221.203 42.2284 244.207 29.7202C267.212 17.212 260.007 3.9765 283.005 -8.52808" stroke="white" stroke-opacity="0.64" stroke-width="0.15" stroke-miterlimit="10"/>
<path d="M-21.7803 88.5435C1.21779 76.0389 8.41621 89.278 31.4143 76.7734C54.4123 64.2689 47.2139 51.0297 70.2054 38.5287C93.1968 26.0278 100.402 39.2633 123.4 26.7587C146.398 14.2541 139.2 1.01501 162.198 -11.4896C185.196 -23.9941 192.394 -10.755 215.399 -23.2632C238.403 -35.7714 231.198 -49.0069 254.196 -61.5115" stroke="white" stroke-opacity="0.64" stroke-width="0.15" stroke-miterlimit="10"/>
<path d="M35.8364 194.51C58.8345 182.006 66.0329 195.245 89.031 182.74C112.029 170.236 104.831 156.997 127.822 144.496C150.814 131.995 158.019 145.23 181.017 132.726C204.015 120.221 196.816 106.982 219.814 94.4772C242.812 81.9727 250.011 95.2118 273.015 82.7036C296.02 70.1954 288.815 56.9599 311.813 44.4553" stroke="white" stroke-opacity="0.64" stroke-width="0.15" stroke-miterlimit="10"/>
<path d="M-57.8018 22.2939C-34.8037 9.78937 -27.6053 23.0285 -4.60721 10.5239C18.3909 -1.98066 11.1924 -15.2198 34.1839 -27.7208C57.1753 -40.2217 64.3804 -26.9862 87.3784 -39.4908C110.376 -51.9954 103.178 -65.2345 126.176 -77.7391C149.174 -90.2437 156.373 -77.0045 179.377 -89.5127C202.382 -102.021 195.177 -115.256 218.175 -127.761" stroke="white" stroke-opacity="0.64" stroke-width="0.15" stroke-miterlimit="10"/>
<path d="M-0.185059 128.261C22.813 115.756 30.0261 129.022 53.0241 116.518C76.0222 104.013 68.8091 90.747 91.8006 78.246C114.792 65.745 122.012 79.0075 145.01 66.5029C168.008 53.9983 160.795 40.7323 183.793 28.2277C206.791 15.7231 214.004 28.9892 237.009 16.481C260.013 3.97283 252.794 -9.28961 275.792 -21.7942" stroke="white" stroke-opacity="0.64" stroke-width="0.15" stroke-miterlimit="10"/>
<path d="M-28.9932 75.2773C-5.9951 62.7728 1.21795 76.0388 24.216 63.5342C47.2141 51.0297 40.001 37.7636 62.9925 25.2626C85.9839 12.7616 93.2036 26.0241 116.202 13.5195C139.2 1.01494 131.987 -12.2511 154.985 -24.7557C177.983 -37.2603 185.196 -23.9942 208.201 -36.5024C231.205 -49.0106 223.986 -62.273 246.984 -74.7776" stroke="white" stroke-opacity="0.64" stroke-width="0.15" stroke-miterlimit="10"/>
<path d="M28.6377 181.271C51.6358 168.767 58.8342 182.006 81.8322 169.501C104.83 156.997 97.6319 143.758 120.623 131.257C143.615 118.756 150.82 131.991 173.818 119.487C196.816 106.982 189.618 93.743 212.616 81.2385C235.614 68.7339 242.812 81.973 265.817 69.4648C288.821 56.9567 281.616 43.7211 304.614 31.2165" stroke="white" stroke-opacity="0.64" stroke-width="0.15" stroke-miterlimit="10"/>
<path d="M-43.3901 48.7988C-20.3921 36.2943 -13.1937 49.5334 9.80441 37.0288C32.8025 24.5242 25.6041 11.2851 48.5955 -1.21589C71.587 -13.7169 78.792 -0.481332 101.79 -12.9859C124.788 -25.4905 117.59 -38.7296 140.588 -51.2342C163.586 -63.7388 170.784 -50.4996 193.789 -63.0078C216.794 -75.516 209.589 -88.7515 232.587 -101.256" stroke="white" stroke-opacity="0.64" stroke-width="0.15" stroke-miterlimit="10"/>
<path d="M14.2266 154.766C37.2246 142.262 44.423 155.501 67.4211 142.996C90.4192 130.492 83.2208 117.252 106.212 104.751C129.204 92.2504 136.409 105.486 159.407 92.9814C182.405 80.4768 175.206 67.2377 198.204 54.7331C221.203 42.2285 228.401 55.4676 251.406 42.9595C274.41 30.4513 267.205 17.2158 290.203 4.71118" stroke="white" stroke-opacity="0.64" stroke-width="0.15" stroke-miterlimit="10"/>
<path d="M53.8472 227.635C76.8452 215.131 84.0437 228.37 107.042 215.865C130.04 203.361 122.841 190.122 145.833 177.621C168.824 165.12 176.029 178.355 199.027 165.851C222.025 153.346 214.827 140.107 237.825 127.602C260.823 115.098 268.022 128.337 291.026 115.829C314.031 103.32 306.826 90.0849 329.824 77.5803" stroke="white" stroke-opacity="0.64" stroke-width="0.15" stroke-miterlimit="10"/>
<path d="M-14.582 101.783C8.41603 89.2781 15.6145 102.517 38.6125 90.0127C61.6106 77.5081 54.4122 64.269 77.4036 51.768C100.395 39.267 107.6 52.5026 130.598 39.998C153.596 27.4934 146.398 14.2543 169.396 1.74969C192.394 -10.7549 199.592 2.48424 222.597 -10.0239C245.602 -22.5321 238.397 -35.7676 261.395 -48.2722" stroke="white" stroke-opacity="0.64" stroke-width="0.15" stroke-miterlimit="10"/>
<path d="M43.0352 207.75C66.0332 195.245 73.2316 208.484 96.2297 195.979C119.228 183.475 112.029 170.236 135.021 157.735C158.012 145.234 165.217 158.469 188.215 145.965C211.213 133.46 204.015 120.221 227.013 107.716C250.011 95.2119 257.21 108.451 280.214 95.9429C303.219 83.4347 296.014 70.1992 319.012 57.6946" stroke="white" stroke-opacity="0.64" stroke-width="0.15" stroke-miterlimit="10"/>
<path d="M-61.4004 15.6743C-38.4023 3.16974 -31.2039 16.4089 -8.20584 3.90429C14.7922 -8.60028 7.5938 -21.8394 30.5853 -34.3404C53.5767 -46.8414 60.7817 -33.6058 83.7798 -46.1104C106.778 -58.615 99.5794 -71.8541 122.577 -84.3587C145.576 -96.8633 152.774 -83.6242 175.779 -96.1323C198.783 -108.641 191.578 -121.876 214.576 -134.381" stroke="white" stroke-opacity="0.64" stroke-width="0.15" stroke-miterlimit="10"/>
<path d="M-3.78418 121.642C19.2139 109.137 26.4269 122.403 49.425 109.898C72.4231 97.3939 65.21 84.1279 88.2015 71.6269C111.193 59.1259 118.413 72.3884 141.411 59.8838C164.409 47.3792 157.196 34.1132 180.194 21.6086C203.192 9.104 210.405 22.37 233.41 9.86187C256.414 -2.64631 249.195 -15.9088 272.193 -28.4133" stroke="white" stroke-opacity="0.64" stroke-width="0.15" stroke-miterlimit="10"/>
<path d="M-32.5928 68.6582C-9.59471 56.1536 -2.39629 69.3928 20.6018 56.8882C43.5998 44.3836 36.4014 31.1445 59.3929 18.6435C82.3843 6.14251 89.5894 19.378 112.587 6.87347C135.585 -5.63111 128.387 -18.8702 151.385 -31.3748C174.383 -43.8794 181.582 -30.6403 204.586 -43.1484C227.591 -55.6566 220.386 -68.8922 243.384 -81.3967" stroke="white" stroke-opacity="0.64" stroke-width="0.15" stroke-miterlimit="10"/>
<path d="M25.0244 174.625C48.0225 162.12 55.2355 175.386 78.2336 162.882C101.232 150.377 94.0186 137.111 117.01 124.61C140.002 112.109 147.221 125.372 170.219 112.867C193.217 100.363 186.004 87.0966 209.002 74.592C232 62.0874 239.213 75.3534 262.218 62.8453C285.223 50.3371 278.003 37.0746 301.001 24.5701" stroke="white" stroke-opacity="0.64" stroke-width="0.15" stroke-miterlimit="10"/>
<path d="M-46.9893 42.1797C-23.9912 29.6751 -16.7928 42.9142 6.20529 30.4097C29.2034 17.9051 22.0049 4.66595 44.9964 -7.83503C67.9878 -20.336 75.1929 -7.10047 98.1909 -19.6051C121.189 -32.1096 113.991 -45.3488 136.989 -57.8533C159.987 -70.3579 167.185 -57.1188 190.19 -69.627C213.194 -82.1351 205.989 -95.3707 228.988 -107.875" stroke="white" stroke-opacity="0.64" stroke-width="0.15" stroke-miterlimit="10"/>
<path d="M10.6274 148.146C33.6255 135.642 40.8239 148.881 63.822 136.376C86.8201 123.872 79.6216 110.633 102.613 98.1318C125.605 85.6308 132.81 98.8663 155.808 86.3617C178.806 73.8572 171.607 60.618 194.605 48.1135C217.603 35.6089 224.802 48.848 247.807 36.3398C270.811 23.8317 263.606 10.5961 286.604 -1.90845" stroke="white" stroke-opacity="0.64" stroke-width="0.15" stroke-miterlimit="10"/>
<path d="M50.2334 220.989C73.2315 208.484 80.4445 221.75 103.443 209.246C126.441 196.741 119.228 183.475 142.219 170.974C165.21 158.473 172.43 171.736 195.428 159.231C218.426 146.726 211.213 133.46 234.211 120.956C257.209 108.451 264.422 121.717 287.427 109.209C310.432 96.7009 303.212 83.4384 326.21 70.9338" stroke="white" stroke-opacity="0.64" stroke-width="0.15" stroke-miterlimit="10"/>
<path d="M-18.1812 95.1631C4.81691 82.6585 12.0153 95.8976 35.0134 83.3931C58.0115 70.8885 50.813 57.6494 73.8045 45.1484C96.7959 32.6474 104.001 45.8829 126.999 33.3783C149.997 20.8738 142.799 7.63464 165.797 -4.86994C188.795 -17.3745 195.993 -4.13538 218.998 -16.6436C242.003 -29.1517 234.798 -42.3873 257.796 -54.8918" stroke="white" stroke-opacity="0.64" stroke-width="0.15" stroke-miterlimit="10"/>
<path d="M39.4355 201.13C62.4336 188.625 69.632 201.864 92.6301 189.36C115.628 176.855 108.43 163.616 131.421 151.115C154.413 138.614 161.618 151.85 184.616 139.345C207.614 126.841 200.415 113.601 223.413 101.097C246.411 88.5923 253.61 101.831 276.615 89.3232C299.619 76.8151 292.414 63.5795 315.412 51.0749" stroke="white" stroke-opacity="0.64" stroke-width="0.15" stroke-miterlimit="10"/>
<path d="M-54.2021 28.9136C-31.2041 16.409 -23.991 29.675 -0.992967 17.1705C22.0051 4.66588 14.792 -8.60016 37.7835 -21.1011C60.7749 -33.6021 67.9946 -20.3397 90.9927 -32.8443C113.991 -45.3488 106.778 -58.6149 129.776 -71.1194C152.774 -83.624 159.987 -70.358 182.992 -82.8662C205.996 -95.3743 198.777 -108.637 221.775 -121.141" stroke="white" stroke-opacity="0.64" stroke-width="0.15" stroke-miterlimit="10"/>
<path d="M3.4292 134.907C26.4273 122.403 33.6257 135.642 56.6237 123.137C79.6218 110.633 72.4234 97.3935 95.4148 84.8925C118.406 72.3915 125.611 85.6271 148.609 73.1225C171.607 60.6179 164.409 47.3788 187.407 34.8742C210.405 22.3696 217.604 35.6088 240.608 23.1006C263.613 10.5924 256.408 -2.64313 279.406 -15.1477" stroke="white" stroke-opacity="0.64" stroke-width="0.15" stroke-miterlimit="10"/>
<path d="M-25.3945 81.897C-2.39647 69.3924 4.81659 82.6584 27.8147 70.1539C50.8127 57.6493 43.5997 44.3832 66.5911 31.8823C89.5826 19.3813 96.8022 32.6437 119.8 20.1391C142.798 7.63457 135.585 -5.63147 158.583 -18.136C181.581 -30.6406 188.794 -17.3746 211.799 -29.8828C234.804 -42.3909 227.584 -55.6534 250.582 -68.158" stroke="white" stroke-opacity="0.64" stroke-width="0.15" stroke-miterlimit="10"/>
<path d="M32.2373 187.891C55.2354 175.386 62.4338 188.625 85.4319 176.121C108.43 163.616 101.231 150.377 124.223 137.876C147.214 125.375 154.419 138.61 177.417 126.106C200.416 113.601 193.217 100.362 216.215 87.8576C239.213 75.353 246.412 88.5922 269.416 76.084C292.421 63.5758 285.216 50.3403 308.214 37.8357" stroke="white" stroke-opacity="0.64" stroke-width="0.15" stroke-miterlimit="10"/>
<path d="M-39.791 55.4189C-16.793 42.9144 -9.59453 56.1535 13.4035 43.6489C36.4016 31.1443 29.2032 17.9052 52.1946 5.40423C75.1861 -7.09675 82.3911 6.13879 105.389 -6.36579C128.387 -18.8704 121.189 -32.1095 144.187 -44.6141C167.185 -57.1187 174.383 -43.8795 197.388 -56.3877C220.393 -68.8959 213.188 -82.1314 236.186 -94.636" stroke="white" stroke-opacity="0.64" stroke-width="0.15" stroke-miterlimit="10"/>
<path d="M17.8257 161.386C40.8237 148.881 48.0222 162.12 71.0202 149.616C94.0183 137.111 86.8199 123.872 109.811 111.371C132.803 98.87 140.008 112.106 163.006 99.601C186.004 87.0964 178.806 73.8573 201.804 61.3527C224.802 48.8481 232 62.0873 255.005 49.5791C278.009 37.0709 270.804 23.8354 293.802 11.3308" stroke="white" stroke-opacity="0.64" stroke-width="0.15" stroke-miterlimit="10"/>
<path d="M-10.9824 108.402C12.0156 95.8978 19.2141 109.137 42.2121 96.6323C65.2102 84.1277 58.0118 70.8886 81.0032 58.3876C103.995 45.8866 111.2 59.1222 134.198 46.6176C157.196 34.113 149.997 20.8739 172.995 8.36932C195.994 -4.13526 203.192 9.10387 226.197 -3.4043C249.201 -15.9125 241.996 -29.148 264.994 -41.6526" stroke="white" stroke-opacity="0.64" stroke-width="0.15" stroke-miterlimit="10"/>
<path d="M46.6343 214.369C69.6323 201.865 76.8454 215.131 99.8435 202.626C122.842 190.121 115.628 176.855 138.62 164.354C161.611 151.853 168.831 165.116 191.829 152.611C214.827 140.107 207.614 126.841 230.612 114.336C253.61 101.832 260.823 115.098 283.828 102.589C306.833 90.0812 299.613 76.8188 322.611 64.3142" stroke="white" stroke-opacity="0.64" stroke-width="0.15" stroke-miterlimit="10"/>
</g>
<defs>
<filter id="filter0_f_2965_107482" x="-105.594" y="-98.2496" width="359.853" height="332.368" filterUnits="userSpaceOnUse" color-interpolation-filters="sRGB">
<feFlood flood-opacity="0" result="BackgroundImageFix"/>
<feBlend mode="normal" in="SourceGraphic" in2="BackgroundImageFix" result="shape"/>
<feGaussianBlur stdDeviation="55.8828" result="effect1_foregroundBlur_2965_107482"/>
</filter>
<filter id="filter1_f_2965_107482" x="8.07611" y="-152.613" width="376.072" height="362.783" filterUnits="userSpaceOnUse" color-interpolation-filters="sRGB">
<feFlood flood-opacity="0" result="BackgroundImageFix"/>
<feBlend mode="normal" in="SourceGraphic" in2="BackgroundImageFix" result="shape"/>
<feGaussianBlur stdDeviation="55.8828" result="effect1_foregroundBlur_2965_107482"/>
</filter>
<clipPath id="clip0_2965_107482">
<rect width="280" height="80" fill="white"/>
</clipPath>
</defs>
</svg>
