<svg width="48" height="48" viewBox="0 0 48 48" fill="none" xmlns="http://www.w3.org/2000/svg">
<g clip-path="url(#clip0_1392_41044)" filter="url(#filter0_d_1392_41044)">
<path d="M19.2186 23.1344L8.42578 9.18792L8.47883 9.08109L22.5893 10.7872C21.4655 14.9051 20.3569 18.9647 19.2186 23.1344Z" fill="#D31D54"/>
<path d="M19.7812 23.2429C20.9131 19.1055 22.0321 15.0208 23.1784 10.8203L33.4761 25.2929L33.4231 25.4022L19.7812 23.2429Z" fill="#E1136E"/>
<path d="M19.8125 23.8448L32.8667 25.949C32.8747 25.9927 32.8828 26.0364 32.8916 26.0801L21.6116 31.7722C21.0119 29.1273 20.4251 26.5423 19.8125 23.8448Z" fill="#D31D54"/>
<path d="M14.9297 38.8701C16.3333 33.8886 17.736 28.908 19.1701 23.8164C19.2283 23.9269 19.278 24.0416 19.3189 24.1596C19.9901 27.2003 20.6549 30.2426 21.3334 33.2824C21.4009 33.5851 21.3334 33.768 21.0922 33.9615C19.1557 35.5356 17.2336 37.1252 15.3043 38.7099C15.2134 38.7843 15.1162 38.8499 15.0213 38.9203C14.9916 38.9033 14.9635 38.8855 14.9297 38.8701Z" fill="#9F1C3B"/>
<path d="M29.9766 19.5201L36.7484 18.2891C35.8802 20.6742 35.045 22.9703 34.168 25.3781L29.9766 19.5201Z" fill="#D31D54"/>
<path d="M23.4102 31.4743L33.523 26.2832L33.6033 26.352C33.4763 26.7405 33.3622 27.1322 33.2151 27.5142C33.1837 27.5952 33.0663 27.6648 32.9739 27.7028C29.8291 28.981 26.6835 30.2563 23.5372 31.5285C23.5109 31.5359 23.484 31.5402 23.4568 31.5415L23.4102 31.4743Z" fill="#E1136E"/>
<path d="M39.9584 21.2559H36.2051C36.5604 20.2847 36.9012 19.3467 37.2107 18.4961L40.0002 21.1345C39.9865 21.175 39.9729 21.2155 39.9584 21.2559Z" fill="#E1136E"/>
<path d="M13.7509 17.1138C11.8345 15.2863 9.91752 13.4593 8 11.6329C8.01447 11.5965 8.02814 11.5609 8.0418 11.5253C8.52413 11.5253 9.01289 11.518 9.49763 11.5326C9.57239 11.5326 9.6584 11.6232 9.71467 11.6944C11.0652 13.4356 12.4133 15.1784 13.759 16.9228C13.7849 16.9654 13.8057 17.0111 13.8209 17.0587L13.7509 17.1138Z" fill="#9F1C3B"/>
</g>
<defs>
<filter id="filter0_d_1392_41044" x="-4" y="-1.91891" width="56" height="53.8378" filterUnits="userSpaceOnUse" color-interpolation-filters="sRGB">
<feFlood flood-opacity="0" result="BackgroundImageFix"/>
<feColorMatrix in="SourceAlpha" type="matrix" values="0 0 0 0 0 0 0 0 0 0 0 0 0 0 0 0 0 0 127 0" result="hardAlpha"/>
<feOffset dy="1"/>
<feGaussianBlur stdDeviation="6"/>
<feComposite in2="hardAlpha" operator="out"/>
<feColorMatrix type="matrix" values="0 0 0 0 0 0 0 0 0 0 0 0 0 0 0 0 0 0 0.12 0"/>
<feBlend mode="normal" in2="BackgroundImageFix" result="effect1_dropShadow_1392_41044"/>
<feBlend mode="normal" in="SourceGraphic" in2="effect1_dropShadow_1392_41044" result="shape"/>
</filter>
<clipPath id="clip0_1392_41044">
<rect width="32" height="29.8378" fill="white" transform="translate(8 9.08109)"/>
</clipPath>
</defs>
</svg>
