<svg width="40" height="40" viewBox="0 0 40 40" fill="none" xmlns="http://www.w3.org/2000/svg">
<rect width="40" height="40" rx="8" fill="#F5B300"/>
<path d="M12.9738 9.19585C13.7083 9.39616 14.4427 9.5297 15.1772 9.73002C15.9117 9.93033 16.6462 10.0639 17.3807 10.2642C17.581 10.331 17.6478 10.2642 17.7145 10.0639C17.9816 8.92876 18.2487 7.86043 18.5158 6.72532C18.5825 6.52501 18.6493 6.45824 18.8496 6.52501C19.5173 6.72532 20.1183 6.85886 20.786 6.99241C20.9863 7.05918 20.9863 7.12595 20.9195 7.25949C20.6525 8.32783 20.3854 9.46293 20.1183 10.5313C20.1183 10.598 20.1183 10.6648 20.0515 10.7984C20.5857 10.9319 21.1866 11.0654 21.7208 11.199C21.7876 11.199 21.8543 11.0654 21.9211 10.9987C22.1214 10.1306 22.3217 9.32939 22.5888 8.46137C22.6556 8.19428 22.7224 7.9272 22.7891 7.66011C22.7891 7.52657 22.8559 7.4598 22.9894 7.52657C23.6571 7.72689 24.3249 7.86043 25.0593 8.06074C25.1261 8.06074 25.1261 8.12751 25.1929 8.12751C24.9926 8.99554 24.7923 9.79679 24.5919 10.598C24.5252 10.9319 24.4584 11.2657 24.3249 11.5996C24.2581 11.7999 24.3249 11.8667 24.5252 11.9335C25.2596 12.2673 25.9941 12.6012 26.7286 12.935C27.3963 13.3356 27.9973 13.8698 28.4647 14.5375C29.0656 15.5391 29.1324 16.6074 28.8653 17.6758C28.665 18.4102 28.3979 19.078 27.8637 19.6121C27.4631 20.0127 26.9289 20.2798 26.3948 20.4801C26.328 20.4801 26.2612 20.5469 26.1277 20.5469C26.3948 20.7472 26.6618 20.8808 26.9289 21.0811C27.7302 21.682 28.2643 22.4165 28.5314 23.3513C28.665 24.0858 28.5982 24.887 28.3979 25.6215C28.1308 26.5563 27.7969 27.3576 27.196 28.092C26.4615 28.9601 25.5267 29.4275 24.4584 29.561C23.0562 29.7613 21.7208 29.6278 20.3854 29.4275C20.1851 29.3607 20.0515 29.4275 19.9847 29.6278C19.7177 30.6961 19.4506 31.8312 19.1835 32.8996C19.1167 33.1666 19.1167 33.2334 18.7829 33.0999C18.1819 32.9663 17.5142 32.766 16.9133 32.6325C16.713 32.5657 16.713 32.4989 16.7797 32.3654C17.0468 31.2303 17.3139 30.0952 17.6478 29.0268C17.6478 28.8933 17.7145 28.8265 17.581 28.7598C17.0468 28.6262 16.5126 28.4927 15.9117 28.3591C15.7782 28.9601 15.5779 29.561 15.4443 30.1619C15.3108 30.7629 15.1105 31.3638 14.9769 31.9648C14.9101 32.0983 14.9101 32.1651 14.7098 32.0983C14.0421 31.898 13.3744 31.7644 12.7067 31.6309C12.5064 31.5641 12.5064 31.4974 12.5732 31.3638C12.8402 30.2287 13.1073 29.0936 13.4412 28.0253C13.4412 27.9585 13.508 27.8917 13.508 27.7582C11.9722 27.3576 10.4365 26.9569 8.83398 26.5563C8.96753 26.2892 9.0343 26.0889 9.16784 25.8218C9.43492 25.2209 9.70201 24.6199 9.90232 24.0858C9.96909 23.8855 10.0359 23.8855 10.2362 23.8855C10.7036 24.019 11.2377 24.1525 11.7051 24.2193C12.2393 24.3529 12.6399 24.0858 12.7067 23.6184C13.5747 20.2131 14.4427 16.8077 15.244 13.3356C15.3775 12.8015 15.0437 12.2005 14.4427 12.0002C13.8418 11.7999 13.2409 11.6664 12.7067 11.5328C12.5732 11.5328 12.5064 11.4661 12.5732 11.3325C12.7735 10.598 12.9738 9.79679 13.1741 9.06231C12.907 9.26262 12.907 9.26262 12.9738 9.19585ZM16.3791 25.6883C16.4459 25.6883 16.5126 25.7551 16.5126 25.7551C17.581 26.0221 18.7161 26.356 19.8512 26.4228C20.6524 26.4895 21.3869 26.4895 22.1214 26.2225C23.3901 25.8218 23.9242 24.1525 23.1897 23.0842C22.8559 22.55 22.3217 22.2162 21.7876 21.8823C20.5857 21.2146 19.1835 20.9475 17.8481 20.6805C17.6478 20.6137 17.6478 20.6805 17.581 20.8808C17.4474 21.5485 17.2471 22.1494 17.1136 22.8171C16.8465 23.7519 16.6462 24.6867 16.3791 25.6883ZM21.9879 18.8776C22.1214 18.8776 22.4553 18.8109 22.7224 18.7441C23.991 18.477 24.6587 17.0081 23.991 15.8729C23.6571 15.272 23.0562 14.8714 22.4553 14.6043C21.5205 14.2037 20.5857 14.0034 19.5841 13.7363C19.3838 13.6695 19.317 13.7363 19.2503 13.9366C18.9164 15.3388 18.5825 16.6742 18.1819 18.0764C18.1152 18.2099 18.1819 18.2767 18.3155 18.3435C18.5826 18.4102 18.7829 18.477 19.0499 18.5438C20.0515 18.6773 20.9195 18.8776 21.9879 18.8776Z" fill="white"/>
</svg>
