<svg width="48" height="48" viewBox="0 0 48 48" fill="none" xmlns="http://www.w3.org/2000/svg">
<g clip-path="url(#clip0_1392_41060)">
<rect width="48" height="48" rx="24" fill="white"/>
<g clip-path="url(#clip1_1392_41060)" filter="url(#filter0_d_1392_41060)">
<path d="M24.5128 34.7194C23.4301 35.394 22.3743 36.0819 21.2874 36.7187C20.7918 37.0096 20.2635 36.8905 19.8679 36.5067C19.5882 36.2339 19.4798 35.9257 19.6159 35.5379C19.7357 35.2038 19.8303 34.8616 19.8989 34.5139C19.9964 34.0077 19.8611 33.541 19.563 33.117C19.4991 33.0274 19.4302 32.9403 19.3757 32.845C18.9145 32.0396 19.1623 31.2836 20.0552 31.0083C21.4327 30.5868 22.7581 30.7561 23.9803 31.5367C24.1323 31.6337 24.2743 31.7454 24.4221 31.8482C24.4288 31.8531 24.4473 31.8424 24.5111 31.8243C24.5111 31.6008 24.5111 31.3609 24.5111 31.1209C24.5111 30.8193 24.648 30.6583 24.963 30.6583H28.532C28.8277 30.6583 28.9578 30.8021 28.957 31.0922C28.9536 33.146 28.9536 35.2004 28.957 37.2553C28.957 37.5668 28.826 37.7048 28.5059 37.7024C27.246 37.6917 27.3443 37.8289 27.346 36.6341C27.346 35.3193 27.346 34.0045 27.346 32.6896C27.346 32.2229 27.3233 32.2262 26.7042 32.2089C26.3296 32.1991 26.1474 32.2771 26.1541 32.702C26.1793 34.1811 26.165 35.6603 26.1633 37.1395C26.1633 37.6029 26.0692 37.6958 25.6064 37.6982C24.4641 37.7032 24.501 37.7927 24.5103 36.6382C24.517 35.9726 24.5128 35.3069 24.5128 34.7194ZM21.2118 34.9314C21.3353 34.9256 21.4117 34.9421 21.4638 34.9166C22.2904 34.5175 23.0294 33.9642 23.6393 33.2879C23.835 33.0734 23.6745 32.9337 23.4965 32.8351C22.8393 32.471 22.0936 32.2878 21.3386 32.3051C20.9388 32.3116 20.8708 32.4735 21.1152 32.7833C21.4688 33.2295 21.5444 33.7152 21.3932 34.2477C21.3353 34.4572 21.2823 34.6668 21.2118 34.9314Z" fill="#524E4B"/>
<path d="M14.5376 32.1995C13.8867 32.1995 13.2441 32.1872 12.6058 32.2036C12.2379 32.2135 12.0732 32.0944 12.0715 31.7106C12.0648 30.6579 12.0531 30.6579 13.1391 30.6579C13.9934 30.6579 14.8468 30.6579 15.701 30.6579C15.9681 30.6579 16.2596 30.6357 16.2554 30.3103C16.2512 29.9849 15.979 29.8526 15.6674 29.8789C15.0559 29.9298 14.4461 30.0375 13.8346 30.0433C13.4583 30.0393 13.0868 29.9605 12.7427 29.8115C12.1799 29.574 12.0623 28.7054 12.5218 28.3118C12.6192 28.2296 12.8796 28.1902 12.9678 28.2551C13.7867 28.8624 14.6678 28.6192 15.549 28.4885C15.8368 28.4343 16.1314 28.4238 16.4225 28.4573C17.4304 28.6167 17.9185 29.4269 17.6329 30.4089C17.6144 30.4739 17.601 30.5404 17.5724 30.6555H18.2948C18.6139 30.6555 18.787 30.7779 18.7836 31.1206C18.7693 32.3031 18.902 32.1963 17.7211 32.1954C17.3011 32.1954 16.8811 32.2045 16.4611 32.1954C16.2234 32.188 16.1126 32.2456 16.1008 32.5093C16.0538 33.5415 16.2058 33.6754 17.2356 33.4478C17.5212 33.3845 17.8042 33.3056 18.0932 33.258C18.4426 33.1996 18.7483 33.3829 18.7609 33.7116C18.7853 34.3394 18.8449 34.9853 18.7223 35.5934C18.5048 36.7069 17.6472 37.2846 16.6073 37.5985C15.7749 37.8499 14.9173 37.8064 14.0874 37.5722C12.8661 37.232 12.0724 36.1538 12.006 34.7355C11.9808 34.2063 12.0396 33.6713 12.09 33.1421C12.1194 32.8471 12.3059 32.677 12.6377 32.7123C12.7343 32.7222 12.8334 32.7123 12.9308 32.7123C13.4936 32.7123 13.5415 32.7838 13.5692 33.3196C13.5932 33.8914 13.6516 34.4613 13.7439 35.0264C13.8556 35.6706 14.2907 36.0478 14.9551 36.0758C15.438 36.0917 15.9213 36.0564 16.3965 35.9706C16.6291 35.9159 16.8362 35.7862 16.9844 35.6024C17.1272 35.429 17.165 35.1735 17.249 34.9541C17.0496 34.9371 16.8494 34.9316 16.6493 34.9376C16.3024 34.9672 15.9572 35.0601 15.6119 35.0584C14.8778 35.0584 14.6099 34.77 14.604 34.0501C14.5964 33.4749 14.5973 32.8997 14.5922 32.3244C14.5789 32.281 14.5605 32.2391 14.5376 32.1995Z" fill="#524E4B"/>
<path d="M35.998 33.9089C35.998 34.7857 36.0031 35.6617 35.998 36.5385C35.9863 37.3841 35.3622 37.8903 34.5466 37.6438C33.306 37.2649 32.0469 37.2329 30.7668 37.3052C29.8596 37.3537 29.5539 37.0587 29.543 36.1638C29.543 36.1366 29.543 36.1087 29.543 36.0816C29.543 34.8662 29.543 34.8769 30.7046 34.4307C30.9281 34.3444 31.2674 34.1307 31.2649 33.982C31.2573 33.6262 30.8743 33.6319 30.5854 33.595C29.7866 33.4931 29.564 33.2613 29.5472 32.4831C29.5379 32.0312 29.5522 31.5792 29.5472 31.1272C29.5472 30.7985 29.7152 30.6613 30.0402 30.6621C31.8596 30.6654 33.6795 30.6654 35.4999 30.6621C35.8594 30.6621 36.0039 30.8166 35.9972 31.1609C35.9913 32.0739 35.998 32.991 35.998 33.9089ZM32.8062 32.2004C32.4702 32.2004 32.1342 32.1898 31.7982 32.2062C31.6916 32.2119 31.5874 32.2884 31.4833 32.3311C31.5429 32.433 31.5782 32.5776 31.6681 32.6294C31.8802 32.7308 32.0991 32.8181 32.3232 32.8907C33.222 33.2391 33.3698 34.1924 32.6012 34.7725C32.3728 34.9451 32.0855 35.0429 31.8453 35.2056C31.721 35.2878 31.6429 35.439 31.5437 35.559C31.6815 35.6222 31.8142 35.7274 31.957 35.7414C32.65 35.8096 33.3463 35.8466 34.0392 35.9057C34.3223 35.9312 34.429 35.8129 34.4147 35.5565C34.4004 35.2837 34.3735 35.0108 34.3651 34.7347C34.345 34.0773 34.3357 33.4199 34.3173 32.7666C34.3072 32.3968 34.1493 32.1741 33.7293 32.1914C33.4185 32.2111 33.1111 32.2004 32.8028 32.2004H32.8062Z" fill="#524E4B"/>
<path d="M32.6032 39.9995C32.4598 40.001 32.3174 39.9747 32.1845 39.9221C32.0515 39.8695 31.9305 39.7916 31.8285 39.6929C31.7265 39.5943 31.6455 39.4768 31.5902 39.3474C31.5348 39.2179 31.5063 39.079 31.5062 38.9386C31.5025 38.7979 31.5281 38.658 31.5812 38.5272C31.6344 38.3964 31.7141 38.2775 31.8155 38.1776C31.9169 38.0778 32.0379 37.9991 32.1713 37.9463C32.3047 37.8935 32.4476 37.8676 32.5914 37.8704C32.735 37.8674 32.8777 37.8925 33.0113 37.9441C33.1449 37.9957 33.2666 38.0729 33.3693 38.171C33.4721 38.2692 33.5538 38.3864 33.6097 38.5158C33.6657 38.6452 33.6947 38.7842 33.6951 38.9247C33.6953 39.2087 33.5806 39.4812 33.376 39.6826C33.1713 39.8841 32.8935 39.998 32.6032 39.9995Z" fill="#524E4B"/>
<path d="M33.5173 23.2255L33.5123 23.2329C32.516 24.4719 31.2627 25.4902 29.8349 26.2208C28.2919 26.9464 26.4751 27.2069 24.7641 27.2414C25.2514 27.0346 25.6565 26.678 25.9178 26.2255C26.1792 25.7731 26.2825 25.2497 26.2122 24.7346C26.1419 24.2195 25.9018 23.7409 25.5283 23.3714C25.1548 23.0019 24.6683 22.7617 24.1426 22.6873C27.3243 22.5763 29.8811 20.3239 30.0055 17.5209C30.0088 17.4502 30.0105 17.3787 30.0105 17.3064C30.0105 17.1568 30.0038 17.0089 29.9895 16.8635C29.9895 16.612 29.9895 16.3277 30.0105 16.0886C30.0525 15.5068 30.8748 15.1024 30.8748 15.1024H34.1901C34.9209 15.2126 35.1451 15.9817 35.1451 15.9817C35.5559 20.0396 33.6265 23.0579 33.5173 23.2255Z" fill="#1C3E8B"/>
<path d="M18.0523 11.4178C18.4331 9.94893 17.5246 8.45619 16.0232 8.08369C14.5217 7.71118 12.9959 8.59998 12.6152 10.0689C12.2344 11.5377 13.1429 13.0305 14.6443 13.403C16.1457 13.7755 17.6715 12.8867 18.0523 11.4178Z" fill="#FFD700"/>
<path d="M35.126 11.3832C35.4871 9.90957 34.5587 8.42859 33.0525 8.07535C31.5462 7.7221 30.0324 8.63036 29.6713 10.104C29.3103 11.5776 30.2387 13.0586 31.7449 13.4119C33.2512 13.7651 34.765 12.8568 35.126 11.3832Z" fill="#1C3E8B"/>
<path d="M26.2364 25.051C26.2374 25.5174 26.0985 25.9737 25.8369 26.3636C25.5753 26.7535 25.2026 27.0597 24.7648 27.2443C24.061 27.2583 23.3739 27.2328 22.7288 27.1843C21.3387 27.0824 19.9599 26.8655 18.6071 26.5359C16.2695 25.4939 14.3813 23.783 13.2684 21.6876L13.2381 21.6317C12.3982 20.0194 12.5427 15.9928 12.5427 15.9928C12.5603 15.3354 13.3776 15.0889 13.3776 15.0889H16.6845C17.3245 15.1587 17.6445 15.9065 17.6445 15.9065L17.7848 16.9025C17.6765 17.3955 17.7806 17.9847 17.9327 18.4934C18.0332 18.8876 18.183 19.2682 18.3787 19.6266C18.3787 19.6307 18.3829 19.634 18.3845 19.6381L18.3904 19.6488C19.3287 21.3572 21.2605 22.5619 23.5267 22.6811C23.6494 22.6876 23.7729 22.6909 23.8972 22.6909C23.9806 22.6909 24.0629 22.6893 24.1441 22.686C24.7258 22.7671 25.2579 23.0511 25.6424 23.4857C26.0269 23.9203 26.2379 24.4762 26.2364 25.051Z" fill="#FFD700"/>
</g>
</g>
<defs>
<filter id="filter0_d_1392_41060" x="0" y="-3" width="48" height="56" filterUnits="userSpaceOnUse" color-interpolation-filters="sRGB">
<feFlood flood-opacity="0" result="BackgroundImageFix"/>
<feColorMatrix in="SourceAlpha" type="matrix" values="0 0 0 0 0 0 0 0 0 0 0 0 0 0 0 0 0 0 127 0" result="hardAlpha"/>
<feOffset dy="1"/>
<feGaussianBlur stdDeviation="6"/>
<feComposite in2="hardAlpha" operator="out"/>
<feColorMatrix type="matrix" values="0 0 0 0 0 0 0 0 0 0 0 0 0 0 0 0 0 0 0.08 0"/>
<feBlend mode="normal" in2="BackgroundImageFix" result="effect1_dropShadow_1392_41060"/>
<feBlend mode="normal" in="SourceGraphic" in2="effect1_dropShadow_1392_41060" result="shape"/>
</filter>
<clipPath id="clip0_1392_41060">
<rect width="48" height="48" rx="24" fill="white"/>
</clipPath>
<clipPath id="clip1_1392_41060">
<rect width="24" height="32" fill="white" transform="translate(12 8)"/>
</clipPath>
</defs>
</svg>
