<svg width="62" height="19" viewBox="0 0 62 19" fill="none" xmlns="http://www.w3.org/2000/svg">
<g clip-path="url(#clip0_3594_28218)">
<path d="M48.8311 0.0391694C49.3841 -0.062564 49.957 0.0355152 50.4381 0.314267C51.098 0.692717 51.5519 1.39287 51.5711 2.13052C51.5794 2.45102 51.5161 2.76954 51.3853 3.06495C51.2544 3.36036 51.0591 3.62589 50.8122 3.84393C50.5939 4.03979 50.3369 4.19235 50.056 4.29273C49.7752 4.3931 49.4762 4.43928 49.1764 4.42858C48.8261 4.41532 48.4834 4.32742 48.1735 4.17135C47.8636 4.01528 47.5944 3.79502 47.3858 3.52678C46.9292 2.95126 46.7877 2.15535 47.0532 1.47596C47.1945 1.11099 47.4324 0.786941 47.7439 0.535219C48.0554 0.283496 48.4299 0.112629 48.8311 0.0391694Z" fill="white"/>
<path d="M34.5386 0.132812H39.3742C39.3742 0.709353 39.3742 1.28606 39.3742 1.86294C40.4103 1.89942 41.457 2.1274 42.3542 2.63555C43.0683 3.0373 43.676 3.63309 44.0038 4.36415C44.3949 5.22086 44.3726 6.21587 44.0501 7.08879C43.7041 8.00049 42.9959 8.74639 42.078 9.16596C42.8602 9.50388 43.5983 9.96997 44.1347 10.6179C44.7581 11.3541 45.0798 12.2807 45.0399 13.2256C45.0161 14.0255 44.714 14.7954 44.181 15.4142C43.5791 16.1133 42.7288 16.5941 41.8289 16.8733C41.0371 17.1215 40.2006 17.2218 39.3694 17.2218C39.3694 17.8146 39.3694 18.4075 39.3694 19.0006H34.5354C34.5354 18.4075 34.5354 17.8142 34.5354 17.2208H30.3848C30.3848 12.0998 30.3848 6.97885 30.3848 1.85787H34.5354C34.5386 1.28336 34.5349 0.707833 34.5386 0.132812ZM34.9239 5.50558C34.9239 6.27903 34.9239 7.05265 34.9239 7.82644C35.9488 7.82644 36.9739 7.82644 37.9991 7.82644C38.4552 7.82289 38.9346 7.69826 39.2683 7.38871C39.3942 7.27397 39.4882 7.1313 39.5419 6.97349C39.5957 6.81567 39.6076 6.64762 39.5764 6.48439C39.5109 6.12975 39.23 5.84705 38.899 5.69607C38.5574 5.53193 38.1678 5.49342 37.79 5.50558H34.9239ZM34.9239 11.1165C34.9239 11.9355 34.9239 12.7546 34.9239 13.5736C36.1631 13.5736 37.4023 13.5736 38.6414 13.5736C39.082 13.5736 39.5407 13.4748 39.892 13.2104C40.0308 13.111 40.1438 12.9826 40.2224 12.8351C40.3009 12.6877 40.3429 12.525 40.345 12.3596C40.3472 12.1943 40.3095 12.0307 40.2348 11.8814C40.1601 11.7321 40.0505 11.6011 39.9143 11.4985C39.561 11.2203 39.0906 11.1175 38.6404 11.117C37.3998 11.116 36.1601 11.1158 34.9212 11.1165H34.9239Z" fill="white"/>
<path d="M5.21789 1.97702C5.30197 1.93092 5.37753 1.84479 5.48396 1.85898C6.6724 1.85898 7.86084 1.85898 9.04929 1.85898C9.04929 6.97996 9.04929 12.1009 9.04929 17.2219H4.4862V6.73627C3.58582 7.25674 2.68597 7.77789 1.78666 8.29972C1.19226 7.2966 0.593604 6.30007 0.00292969 5.29847C1.74125 4.19267 3.47957 3.08552 5.21789 1.97702Z" fill="white"/>
<path d="M54.7634 2.48438C56.2044 2.48438 57.6456 2.48438 59.087 2.48438C59.087 3.54255 59.087 4.60106 59.087 5.65991H61.4816C61.4816 6.79475 61.4816 7.92942 61.4816 9.06393H59.087C59.087 10.3153 59.0822 11.5672 59.087 12.8185C59.0961 13.2892 59.3983 13.8014 59.9161 13.8921C60.3778 13.953 60.8463 13.8409 61.223 13.5795C61.4784 14.4914 61.7387 15.3978 61.9973 16.3067C61.5184 16.7403 60.9202 17.0473 60.2944 17.2505C59.0274 17.6781 57.5412 17.5362 56.4242 16.8097C55.6164 16.2874 55.063 15.4484 54.8645 14.5431C54.7187 13.9458 54.766 13.3272 54.7581 12.7218C54.7581 11.5028 54.7581 10.2837 54.7581 9.06444C54.2493 9.06444 53.7411 9.06444 53.2324 9.06444C53.2324 7.92959 53.2324 6.79509 53.2324 5.66092H54.7581C54.7616 4.59971 54.7634 3.54086 54.7634 2.48438Z" fill="white"/>
<path d="M46.9683 5.6582C48.4789 5.6582 49.9896 5.6582 51.5005 5.6582C51.5005 9.51262 51.5005 13.367 51.5005 17.2214H46.9683C46.9676 13.3667 46.9676 9.51228 46.9683 5.6582Z" fill="white"/>
<path d="M11.6279 5.38926C12.8667 4.21152 14.1049 3.03311 15.3423 1.85402C16.7968 3.23475 18.2488 4.61665 19.6983 5.99974C21.1482 4.61733 22.6005 3.23525 24.055 1.85352C25.2931 3.03193 26.5312 4.21068 27.7693 5.38977C26.3187 6.77454 24.8677 8.1578 23.4164 9.53954C24.8684 10.9196 26.3194 12.3008 27.7693 13.6832C26.5294 14.863 25.2902 16.0423 24.0518 17.221C22.5994 15.8396 21.1482 14.458 19.6983 13.0763C18.2474 14.458 16.7964 15.8398 15.3454 17.2215L11.6285 13.6827C13.078 12.2979 14.5288 10.9159 15.9808 9.5365C14.5281 8.15611 13.0771 6.7737 11.6279 5.38926Z" fill="#DF7630"/>
</g>
<defs>
<clipPath id="clip0_3594_28218">
<rect width="62" height="19" fill="white"/>
</clipPath>
</defs>
</svg>
