<svg width="44" height="44" viewBox="0 0 44 44" fill="none" xmlns="http://www.w3.org/2000/svg">
<rect width="44" height="44" rx="22" fill="#2B2B2B" fill-opacity="0.64"/>
<g clip-path="url(#clip0_3594_28226)">
<path d="M31.2286 16.5485C31.3657 16.4874 31.5206 16.5088 31.6669 16.5026C32.2497 16.4589 32.766 16.9669 32.8445 17.5245C32.8577 17.7645 32.8672 18.0198 32.7482 18.2375C32.5942 18.5877 32.2645 18.8418 31.8965 18.9318C31.5723 18.9983 31.2195 18.9368 30.9481 18.743C30.6408 18.5439 30.4219 18.1867 30.4351 17.8153C30.4393 17.6286 30.4153 17.4312 30.4979 17.2573C30.6222 16.9289 30.9035 16.6732 31.2286 16.5485Z" fill="white"/>
<path d="M23.8415 17.5106C23.9204 17.1979 23.8378 16.8691 23.8882 16.5527C24.7225 16.5548 25.5569 16.5531 26.3909 16.5536C26.4272 16.8658 26.3909 17.1831 26.4086 17.4974C26.5586 17.5209 26.7085 17.5474 26.8609 17.5515C27.4792 17.661 28.1013 17.9162 28.5255 18.3941C28.7754 18.6837 28.9555 19.0422 29.0013 19.4239C29.0038 19.727 29.0365 20.0401 28.9332 20.3318C28.7791 20.8832 28.3768 21.3487 27.8754 21.6168C28.1422 21.7997 28.4491 21.9294 28.6742 22.1698C29.1591 22.5961 29.433 23.2438 29.4161 23.8873C29.4066 24.3702 29.2215 24.8481 28.8985 25.2083C28.2884 25.8894 27.3339 26.1694 26.4421 26.1451C26.3644 26.4792 26.4247 26.8278 26.4032 27.1682C25.5676 27.1719 24.7316 27.1694 23.896 27.1698C23.8341 26.8456 23.9101 26.5032 23.8568 26.1752C23.307 26.1674 22.7572 26.1736 22.2079 26.1715C22.0257 26.1682 21.8403 26.1893 21.6622 26.1409C21.6507 23.3516 21.661 20.5622 21.6569 17.7725C21.6536 17.6833 21.6639 17.5945 21.6849 17.5077C22.4037 17.5131 23.1224 17.5081 23.8415 17.5106ZM24.0827 19.5697C24.0749 19.9992 24.0806 20.4288 24.0794 20.8588C24.6536 20.8596 25.2277 20.8625 25.8014 20.8576C26.1067 20.8646 26.4177 20.6692 26.5189 20.3768C26.5288 20.2467 26.5474 20.1046 26.4801 19.986C26.3533 19.7163 26.0443 19.5887 25.7622 19.5713C25.2025 19.5664 24.6424 19.5709 24.0827 19.5697ZM24.0856 22.7171C24.0212 23.0199 24.0674 23.3318 24.0534 23.6387C24.0674 23.7948 24.0125 23.9699 24.1046 24.1087C24.6837 24.1137 25.2632 24.1087 25.8427 24.1112C26.2037 24.1376 26.6246 24.0637 26.8407 23.7423C26.9795 23.5337 26.97 23.2363 26.8072 23.0434C26.6077 22.7935 26.2715 22.7192 25.9671 22.7163C25.34 22.7175 24.713 22.7155 24.0856 22.7171Z" fill="white"/>
<path d="M8.18705 17.7066C8.31757 17.6203 8.44603 17.4934 8.61497 17.5091C9.20275 17.5133 9.79052 17.5038 10.3779 17.5141C10.3841 20.3898 10.3783 23.2659 10.3812 26.1415C10.3039 26.1543 10.2271 26.1725 10.1482 26.1717C9.50014 26.1717 8.85207 26.1704 8.20399 26.1721C8.12592 26.175 8.05157 26.1523 7.97639 26.1362C7.97805 24.1882 7.983 22.2398 7.97392 20.2919C7.76863 20.3699 7.59432 20.5079 7.40432 20.6157C7.13005 20.7888 6.84959 20.9515 6.57986 21.1316C6.37044 20.8718 6.23951 20.5595 6.0685 20.2745C5.94459 20.0416 5.80415 19.8185 5.67941 19.5868C5.63934 19.5162 5.63934 19.4162 5.72278 19.379C6.54269 18.8189 7.36631 18.265 8.18705 17.7066Z" fill="white"/>
<path d="M34.5714 17.8766C35.3269 17.875 36.0824 17.8737 36.8382 17.8774C36.8515 18.4078 36.8432 18.9386 36.8436 19.4693C36.8477 19.5305 36.8316 19.599 36.8647 19.6548C37.2719 19.656 37.6792 19.656 38.0865 19.6544C38.1022 20.288 38.0881 20.922 38.0939 21.5557C37.8102 21.5631 37.5268 21.5586 37.243 21.5594C37.1084 21.561 36.9708 21.5458 36.8407 21.5871C36.851 22.2992 36.8403 23.0121 36.8461 23.7246C36.8415 23.9667 37.0109 24.2033 37.2426 24.276C37.3244 24.2859 37.4078 24.2847 37.4917 24.2843C37.6685 24.2971 37.8188 24.1748 37.996 24.1827C38.0039 24.3256 38.0547 24.4603 38.091 24.5978C38.1703 24.8741 38.2352 25.155 38.3203 25.4301C38.3397 25.5164 38.362 25.6135 38.3306 25.699C38.0006 25.9762 37.6032 26.1769 37.1798 26.262C36.9304 26.3285 36.6697 26.3045 36.4149 26.3049C35.4892 26.2244 34.6705 25.4363 34.5747 24.5094C34.5631 23.5276 34.5735 22.5449 34.5693 21.5631C34.2959 21.5561 34.022 21.5614 33.749 21.5586C33.7453 20.934 33.7482 20.3099 33.7474 19.6854C33.9766 19.6788 34.2063 19.6891 34.4359 19.6808C34.4867 19.6684 34.5698 19.6598 34.5673 19.5887C34.5743 19.0183 34.566 18.4474 34.5714 17.8766Z" fill="white"/>
<path d="M30.415 19.8784C30.4159 19.8007 30.4382 19.726 30.4522 19.6504C31.2337 19.6558 32.0152 19.6553 32.7967 19.6508C32.8128 19.726 32.8376 19.8003 32.8364 19.8784C32.8355 21.7925 32.8364 23.707 32.8364 25.6211C32.8347 25.7946 32.8492 25.9705 32.8087 26.1415C32.7319 26.1539 32.6554 26.1717 32.5778 26.1713C32.0264 26.1713 31.4749 26.1704 30.9235 26.1713C30.7641 26.17 30.603 26.1832 30.4468 26.1448C30.4349 26.0676 30.4159 25.9908 30.4159 25.9127C30.4155 23.9015 30.4155 21.89 30.4155 19.8788L30.415 19.8784Z" fill="white"/>
<path d="M17.8317 18.0265C17.9945 17.8621 18.1456 17.6865 18.3245 17.5391C18.9618 18.2037 19.6264 18.8427 20.2625 19.5089C19.5434 20.2607 18.7917 20.981 18.0734 21.7336C18.0143 21.7815 17.987 21.872 18.0577 21.924C18.3852 22.2437 18.6938 22.5816 19.0176 22.905C19.4278 23.333 19.8627 23.7373 20.2613 24.1764C19.6219 24.8311 18.9788 25.4833 18.3241 26.1231C18.158 25.9856 18.0122 25.8266 17.8623 25.6729C17.3009 25.1049 16.7342 24.5428 16.1758 23.9719C16.1333 23.9339 16.0944 23.8877 16.0403 23.8674C15.9585 23.8493 15.9048 23.9277 15.8503 23.9744C15.4934 24.3474 15.1188 24.7035 14.7669 25.0814C14.4682 25.347 14.2167 25.6584 13.9292 25.9356C13.8577 25.9959 13.7991 26.0971 13.6995 26.1062C13.6107 26.0492 13.5409 25.9695 13.4674 25.8955C13.1101 25.5234 12.7313 25.1719 12.3873 24.7869C12.2072 24.5886 11.9887 24.4263 11.8272 24.2115C11.7665 24.1413 11.8602 24.0789 11.8995 24.0289C12.5182 23.409 13.1349 22.7865 13.7528 22.1661C13.8404 22.0764 13.9408 21.9959 14.0085 21.8893C14.0329 21.8158 13.9916 21.7522 13.9412 21.703C13.3489 21.1116 12.7603 20.5159 12.17 19.9224C12.0366 19.7898 11.9135 19.6473 11.7871 19.5085C12.1836 19.05 12.6343 18.6415 13.0539 18.2045C13.2613 18.0054 13.4505 17.7869 13.6657 17.5969C13.719 17.5358 13.7842 17.6109 13.8264 17.6456C14.2997 18.1227 14.7739 18.5994 15.2485 19.0756C15.4947 19.3482 15.7574 19.6056 16.018 19.8645C16.213 19.696 16.377 19.4961 16.5616 19.3164C16.9941 18.8955 17.4017 18.4498 17.8317 18.0265Z" fill="#FE7727"/>
</g>
<defs>
<clipPath id="clip0_3594_28226">
<rect width="32.6927" height="10.6708" fill="white" transform="translate(5.65332 16.5)"/>
</clipPath>
</defs>
</svg>
